:SAMPLES-PER-SECOND 30
:FULLY-SPECIFIED
:DEGREES
284
root  -36.6482 37.9264 12.1816 -178.295 82.9491 -173.934
RightUpLeg  -23.735 -2.6913 2.75772
RightLeg  23.6617 -0.913168 -0.687613
RightFoot  4.50223 0.700931 -4.81818
RightToes  -1.74624e-010 0 -3.6325e-017
Spine  5.64378 -3.11589 2.96168
Spine1  4.2348 -3.60599 2.26875
HEad  -19.7107 -17.0665 -0.409195
LeftShoulder1  -0.682783 5.18419 -34.4641
LeftArm  10.1192 1.37097 -45.1551
LeftForeArm  23.6522 -16.7176 -6.81979
LeftHand  -0.0260504 5.45954 2.11643
RightShoulder  -1.36067 -6.95317 32.9207
RightArm  15.5265 -9.87386 39.2168
RightForeArm  20.3594 7.07604 7.2581
RightHand  -0.0486249 4.88694 -0.863373
LeftUpLeg  17.7845 5.60006 0.890562
LeftLeg  23.7963 4.89433 2.65168
LeftFoot  -23.1689 -0.694224 -8.19869
LeftToes  -3.96543e-010 8.93632e-011 -2.58531e-011
285
root  -35.2231 37.7724 12.1977 -168.037 83.3369 -163.473
RightUpLeg  -23.5258 -0.87487 4.2772
RightLeg  28.0919 -2.06576 -1.42375
RightFoot  1.29077 0.685768 -6.0898
RightToes  -1.74624e-010 0 -3.6325e-017
Spine  6.00228 -3.2709 5.30724
Spine1  3.95035 -3.23061 1.94271
HEad  -19.3532 -17.0405 -0.49039
LeftShoulder1  -0.612131 5.0169 -34.2808
LeftArm  1.27588 2.80747 -44.5425
LeftForeArm  32.3094 -10.9458 -8.95197
LeftHand  -0.0257689 6.17741 1.07629
RightShoulder  -1.26944 -6.74717 32.5987
RightArm  15.0855 -8.78463 40.134
RightForeArm  19.9146 6.67075 7.23309
RightHand  -0.0746152 3.355 -1.22498
LeftUpLeg  14.268 4.96349 2.88298
LeftLeg  34.5588 2.88865 2.52353
LeftFoot  -17.8536 -0.656513 -13.7931
LeftToes  -3.96543e-010 8.93632e-011 -2.58531e-011
286
root  -33.8949 37.7557 12.233 -161.056 82.4411 -156.412
RightUpLeg  -22.2914 -1.04889 5.66396
RightLeg  30.3492 -2.51679 -1.84112
RightFoot  -1.83372 0.53077 -6.51023
RightToes  -1.74624e-010 0 -3.6325e-017
Spine  6.19046 -3.69856 6.82072
Spine1  3.8622 -3.3504 2.3324
HEad  -19.0661 -18.571 -0.603636
LeftShoulder1  -0.541586 4.86189 -33.7252
LeftArm  -3.42765 4.04484 -44.4653
LeftForeArm  38.1501 -6.61993 -9.20294
LeftHand  -0.0613072 7.27442 -1.03228
RightShoulder  -1.20832 -6.65022 31.8753
RightArm  14.9623 -7.46324 41.6592
RightForeArm  19.8072 7.15721 7.2626
RightHand  -0.0750377 3.45075 -1.22576
LeftUpLeg  7.80662 3.14163 4.40614
LeftLeg  47.2023 2.29805 3.12043
LeftFoot  -3.93277 0.623568 -12.0115
LeftToes  -3.96543e-010 8.93632e-011 -2.58531e-011
287
root  -32.5975 37.8309 12.237 -155.987 81.9797 -151.278
RightUpLeg  -20.4785 -1.20812 6.83443
RightLeg  31.337 -2.88689 -2.15193
RightFoot  -4.30872 0.380661 -6.6501
RightToes  -1.74624e-010 0 -3.6325e-017
Spine  6.02976 -3.57407 8.6622
Spine1  4.04526 -2.80483 1.85626
HEad  -18.8007 -22.778 0.302037
LeftShoulder1  -0.48708 4.72115 -33.8409
LeftArm  -3.88234 4.70538 -43.8089
LeftForeArm  42.1752 -4.61412 -9.20231
LeftHand  -0.122458 8.37762 -2.90479
RightShoulder  -1.21626 -6.69428 31.5916
RightArm  16.2926 -5.82832 42.6029
RightForeArm  17.8839 8.77062 7.52368
RightHand  -0.139369 4.73347 -1.89139
LeftUpLeg  0.807323 2.01594 5.43128
LeftLeg  57.6768 1.5581 3.10083
LeftFoot  9.83667 0.920057 -4.71608
LeftToes  -3.96543e-010 8.93632e-011 -2.58531e-011
288
root  -31.2744 38.042 12.2321 -153.706 82.971 -148.433
RightUpLeg  -17.3819 -0.653597 7.03146
RightLeg  31.1179 -2.65534 -1.9897
RightFoot  -6.42597 0.24251 -6.649
RightToes  -1.74624e-010 0 -3.6325e-017
Spine  6.38598 -2.91964 9.40646
Spine1  4.04715 -1.77016 1.20296
HEad  -17.9559 -27.8896 1.98521
LeftShoulder1  -0.568035 4.90094 -34.4954
LeftArm  -3.19823 5.92211 -42.4324
LeftForeArm  44.1201 -4.97912 -9.50959
LeftHand  -0.098653 7.62668 -2.74963
RightShoulder  -1.1516 -6.55673 31.1912
RightArm  20.0323 -4.26839 43.4225
RightForeArm  15.0206 11.7741 7.52982
RightHand  -0.168732 5.15441 -2.17004
LeftUpLeg  -3.85656 2.05311 5.71443
LeftLeg  63.6237 -0.164888 0.296793
LeftFoot  6.12261 0.477431 -3.38998
LeftToes  -3.96543e-010 8.93632e-011 -2.58531e-011
289
root  -29.9589 38.3296 12.2061 -152.904 84.262 -147.441
RightUpLeg  -14.1911 0.173457 6.72432
RightLeg  29.9264 -2.50923 -1.81225
RightFoot  -8.06627 0.135972 -6.63613
RightToes  -1.74624e-010 0 -3.6325e-017
Spine  6.22523 -2.41775 10.2032
Spine1  4.05662 -0.802944 -0.495619
HEad  -16.8241 -30.1914 2.12304
LeftShoulder1  -0.578099 4.93144 -34.3145
LeftArm  -2.03935 8.38054 -41.3181
LeftForeArm  41.638 -7.1232 -9.5107
LeftHand  -0.0836234 7.72732 -1.90446
RightShoulder  -1.16938 -6.57918 31.4914
RightArm  26.3446 -2.15084 44.1554
RightForeArm  10.5827 15.2032 7.03724
RightHand  -0.124044 5.25739 -1.68997
LeftUpLeg  -8.49224 2.21619 5.54754
LeftLeg  65.7507 -1.09457 -1.94903
LeftFoot  3.52932 0.506729 -4.04365
LeftToes  -3.96543e-010 8.93632e-011 -2.58531e-011
290
root  -28.6321 38.6065 12.1594 -152.516 85.638 -147.207
RightUpLeg  -11.2525 0.976251 6.21343
RightLeg  28.4552 -2.29261 -1.60886
RightFoot  -9.46964 0.0461484 -6.77542
RightToes  -1.74624e-010 0 -3.6325e-017
Spine  5.44183 -1.97487 10.9151
Spine1  4.36381 -0.000349776 -2.34673
HEad  -15.4361 -32.2463 1.54787
LeftShoulder1  -0.509901 4.78677 -33.5955
LeftArm  0.269101 11.3193 -40.6164
LeftForeArm  35.8954 -9.93962 -9.15448
LeftHand  -0.056707 7.52786 -0.825387
RightShoulder  -1.20851 -6.69626 31.3327
RightArm  31.8606 -0.558682 45.5571
RightForeArm  6.60538 19.3026 5.62367
RightHand  -0.163215 3.77231 -2.31431
LeftUpLeg  -12.801 2.40511 5.0484
LeftLeg  64.4075 -1.14874 -1.99261
LeftFoot  2.20107 0.451402 -3.88965
LeftToes  -3.96543e-010 8.93632e-011 -2.58531e-011
291
root  -27.3133 38.8838 12.1101 -149.02 87.4387 -143.704
RightUpLeg  -7.94487 0.385658 5.34933
RightLeg  26.4641 -0.471545 -0.702207
RightFoot  -10.6444 -0.0259817 -7.43308
RightToes  -1.74624e-010 0 -3.6325e-017
Spine  5.37861 -1.44921 10.877
Spine1  3.79193 0.652201 -3.58559
HEad  -14.6497 -34.5577 1.78452
LeftShoulder1  -0.48975 4.74245 -33.39
LeftArm  2.3091 13.9327 -39.7644
LeftForeArm  30.7326 -12.2189 -8.4451
LeftHand  -0.050158 7.00073 -0.857341
RightShoulder  -1.17596 -6.63498 31.0313
RightArm  33.7737 0.582128 46.4944
RightForeArm  5.9275 23.395 4.69805
RightHand  -0.134091 4.29554 -1.83016
LeftUpLeg  -15.9402 2.83584 4.47808
LeftLeg  59.8158 -0.985853 -1.2778
LeftFoot  -0.0193617 0.328469 -3.34783
LeftToes  -3.96543e-010 8.93632e-011 -2.58531e-011
